<?xml version="1.0" encoding="UTF-8" standalone="no"?>
<svg
   xmlns:dc="http://purl.org/dc/elements/1.1/"
   xmlns:cc="http://creativecommons.org/ns#"
   xmlns:rdf="http://www.w3.org/1999/02/22-rdf-syntax-ns#"
   xmlns:svg="http://www.w3.org/2000/svg"
   xmlns="http://www.w3.org/2000/svg"
   xmlns:xlink="http://www.w3.org/1999/xlink"
   xmlns:sodipodi="http://sodipodi.sourceforge.net/DTD/sodipodi-0.dtd"
   xmlns:inkscape="http://www.inkscape.org/namespaces/inkscape"
   viewBox="0 0 706 1180"
   height="1180"
   width="706"
   xml:space="preserve"
   id="svg2"
   version="1.1"
   sodipodi:docname="extras-01.svg"
   inkscape:version="1.0.1 (3bc2e813f5, 2020-09-07)"
   inkscape:export-filename="D:\OneDrive\images\Avatar\avatars\extras\extras-01.png"
   inkscape:export-xdpi="65.607376"
   inkscape:export-ydpi="65.607376"><sodipodi:namedview
     pagecolor="#ffffff"
     bordercolor="#666666"
     borderopacity="1"
     objecttolerance="10"
     gridtolerance="10"
     guidetolerance="10"
     inkscape:pageopacity="0"
     inkscape:pageshadow="2"
     inkscape:window-width="1920"
     inkscape:window-height="1017"
     id="namedview59"
     showgrid="false"
     inkscape:snap-global="false"
     inkscape:zoom="0.4702258"
     inkscape:cx="198.4092"
     inkscape:cy="408.80898"
     inkscape:window-x="-8"
     inkscape:window-y="-8"
     inkscape:window-maximized="1"
     inkscape:current-layer="layer1"
     inkscape:document-rotation="0" /><metadata
     id="metadata8"><rdf:RDF><cc:Work
         rdf:about=""><dc:format>image/svg+xml</dc:format><dc:type
           rdf:resource="http://purl.org/dc/dcmitype/StillImage" /><dc:title /></cc:Work></rdf:RDF></metadata><defs
     id="defs6"><linearGradient
       id="linearGradient2122"><stop
         id="stop2124"
         stop-color="#d0f0ff"
         offset="0" /><stop
         id="stop2126"
         stop-color="#003968"
         offset="1" /></linearGradient><linearGradient
       id="linearGradient2381"
       y2="-528.2"
       xlink:href="#linearGradient2122"
       gradientUnits="userSpaceOnUse"
       y1="156.03"
       gradientTransform="matrix(0.7046,0,0,0.63704,415.29,76.685)"
       x2="104.23"
       x1="-228.34" /><linearGradient
       id="linearGradient2384"
       y2="44.799"
       xlink:href="#linearGradient2122"
       gradientUnits="userSpaceOnUse"
       y1="-27.979"
       gradientTransform="matrix(0.92616,0,0,0.48465,415.29,76.685)"
       x2="-42.793"
       x1="-84.013" /><linearGradient
       id="linearGradient2393"
       y2="322.11"
       gradientUnits="userSpaceOnUse"
       y1="367.87"
       gradientTransform="matrix(-1.3959,0,0,0.49045,414.65,-29.54)"
       x2="208.67"
       x1="220.03"><stop
         id="stop2990"
         stop-color="#fff"
         offset="0" /><stop
         id="stop2992"
         stop-color="#fff"
         stop-opacity="0"
         offset="1" /></linearGradient><linearGradient
       id="linearGradient2399"
       y2="776.39"
       xlink:href="#linearGradient2122"
       gradientUnits="userSpaceOnUse"
       y1="228.04"
       gradientTransform="matrix(-1.2045,0,0,0.56841,414.65,-29.54)"
       x2="-509.76"
       x1="286.59" /><linearGradient
       id="linearGradient2405"
       y2="111.63"
       xlink:href="#linearGradient2122"
       gradientUnits="userSpaceOnUse"
       y1="46.204"
       gradientTransform="scale(-1.1514,0.86854)"
       x2="-289.79"
       x1="-273.98" /><linearGradient
       id="linearGradient2411"
       y2="352.2"
       xlink:href="#linearGradient2122"
       gradientUnits="userSpaceOnUse"
       y1="108.76"
       gradientTransform="matrix(-1.0354,0,0,0.6612,414.65,-29.54)"
       x2="-46.229"
       x1="214.89" /><radialGradient
       id="radialGradient2429"
       gradientUnits="userSpaceOnUse"
       cy="252.7"
       cx="195.7"
       gradientTransform="scale(1.2973,0.77085)"
       r="158.86"><stop
         id="stop2415"
         stop-color="#00006d"
         offset="0" /><stop
         id="stop2419"
         stop-color="#1f4b72"
         stop-opacity=".83673"
         offset=".5" /><stop
         id="stop2417"
         stop-color="#fff"
         stop-opacity="0"
         offset="1" /></radialGradient><radialGradient
       id="radialGradient2429-0"
       gradientUnits="userSpaceOnUse"
       cy="252.7"
       cx="195.7"
       gradientTransform="matrix(1.6396977,0,0,0.17506295,-583.10978,1084.5695)"
       r="158.86"><stop
         id="stop2415-8"
         stop-color="#00006d"
         offset="0" /><stop
         id="stop2419-2"
         stop-color="#1f4b72"
         stop-opacity=".83673"
         offset=".5" /><stop
         id="stop2417-6"
         stop-color="#fff"
         stop-opacity="0"
         offset="1" /></radialGradient><linearGradient
       id="linearGradient2411-9"
       y2="352.20001"
       xlink:href="#linearGradient2122"
       gradientUnits="userSpaceOnUse"
       y1="108.76"
       gradientTransform="matrix(-0.37942343,0,0,0.22584013,-13.522551,926.09284)"
       x2="-46.229"
       x1="214.89" /><linearGradient
       id="linearGradient2405-0"
       y2="111.63"
       xlink:href="#linearGradient2122"
       gradientUnits="userSpaceOnUse"
       y1="46.203999"
       gradientTransform="matrix(-0.42193175,0,0,0.29665939,-151.11437,967.80921)"
       x2="-289.79001"
       x1="-273.98001" /><linearGradient
       id="linearGradient2399-6"
       y2="776.39001"
       xlink:href="#linearGradient2122"
       gradientUnits="userSpaceOnUse"
       y1="228.03999"
       gradientTransform="matrix(-0.4413903,0,0,0.19414669,-145.30502,979.24267)"
       x2="-509.76001"
       x1="286.59" /><linearGradient
       id="linearGradient2393-0"
       y2="322.10999"
       gradientUnits="userSpaceOnUse"
       y1="367.87"
       gradientTransform="matrix(-0.51152903,0,0,0.16751859,44.723842,971.23379)"
       x2="208.67"
       x1="220.03"><stop
         id="stop2990-5"
         stop-color="#fff"
         offset="0" /><stop
         id="stop2992-8"
         stop-color="#fff"
         stop-opacity="0"
         offset="1" /></linearGradient><linearGradient
       id="linearGradient2384-1"
       y2="44.799"
       xlink:href="#linearGradient2122"
       gradientUnits="userSpaceOnUse"
       y1="-27.979"
       gradientTransform="matrix(0.33939231,0,0,0.16553754,44.958371,1007.5161)"
       x2="-42.792999"
       x1="-84.013" /><linearGradient
       id="linearGradient2381-9"
       y2="-528.20001"
       xlink:href="#linearGradient2122"
       gradientUnits="userSpaceOnUse"
       y1="156.03"
       gradientTransform="matrix(0.25820142,0,0,0.21758802,44.958371,1007.5161)"
       x2="104.23"
       x1="-228.34" /><linearGradient
       id="linearGradient2384-1-9"
       y2="44.799"
       xlink:href="#linearGradient2122"
       gradientUnits="userSpaceOnUse"
       y1="-27.979"
       gradientTransform="matrix(0.33939231,0,0,0.16553754,44.958371,1007.5161)"
       x2="-42.792999"
       x1="-84.013" /><linearGradient
       id="linearGradient2381-9-4"
       y2="-528.20001"
       xlink:href="#linearGradient2122"
       gradientUnits="userSpaceOnUse"
       y1="156.03"
       gradientTransform="matrix(0.25820142,0,0,0.21758802,44.958371,1007.5161)"
       x2="104.23"
       x1="-228.34" /><linearGradient
       id="linearGradient4609"><stop
         id="stop4611"
         stop-color="#ff9400"
         offset="0" /><stop
         id="stop4613"
         stop-color="#ff8900"
         stop-opacity="0"
         offset="1" /></linearGradient><radialGradient
       id="radialGradient5261"
       gradientUnits="userSpaceOnUse"
       cy="554.86"
       cx="355.36"
       r="141.71"
       gradientTransform="matrix(1.8189,0,0,1.8189,-667.87856,-898.2666)"><stop
         id="stop5054"
         stop-color="#ff0"
         offset="0" /><stop
         id="stop5056"
         stop-color="#ff0"
         stop-opacity="0"
         offset="1" /></radialGradient><radialGradient
       id="radialGradient5263"
       xlink:href="#linearGradient4609"
       gradientUnits="userSpaceOnUse"
       cy="365.22"
       cx="14.286"
       gradientTransform="matrix(0.99144,-0.13053,0.13053,0.99144,-83.33856,-248.9666)"
       r="249.35" /><radialGradient
       id="radialGradient5265"
       gradientUnits="userSpaceOnUse"
       cy="365.22"
       cx="14.286"
       gradientTransform="matrix(0.70711,-0.70711,0.70711,0.70711,-289.74156,-137.0066)"
       r="249.35"><stop
         id="stop4611-42"
         stop-color="#ff9400"
         offset="0" /><stop
         id="stop4613-5"
         stop-color="#ff8900"
         stop-opacity="0"
         offset="1" /></radialGradient><radialGradient
       id="radialGradient5267"
       cx="355.36"
       xlink:href="#linearGradient4609"
       gradientUnits="userSpaceOnUse"
       cy="554.86"
       r="136.07"
       gradientTransform="matrix(0.8189,0,0,0.8189,-360.06638,-182.02887)" /><linearGradient
       id="linearGradient5269"
       y2="554.86"
       gradientUnits="userSpaceOnUse"
       y1="554.86"
       x2="497.53"
       x1="213.18"
       gradientTransform="matrix(-0.8189,0,0,0.8189,221.93362,-182.02887)"><stop
         id="stop4748-2"
         stop-color="#fff600"
         offset="0" /><stop
         id="stop4750-1"
         stop-color="#ffac00"
         stop-opacity="0"
         offset="1" /></linearGradient><linearGradient
       id="linearGradient5273"
       y2="554.86"
       gradientUnits="userSpaceOnUse"
       y1="554.86"
       x2="497.53"
       x1="213.18"
       gradientTransform="matrix(0.8189,0,0,0.8189,-360.06638,-182.02887)"><stop
         id="stop4748"
         stop-color="#ffc400"
         offset="0" /><stop
         id="stop4750"
         stop-color="#ffac00"
         stop-opacity="0"
         offset="1" /></linearGradient><radialGradient
       id="radialGradient4123"
       xlink:href="#linearGradient4609"
       gradientUnits="userSpaceOnUse"
       cy="600.26"
       cx="357.14"
       gradientTransform="matrix(0.71627003,0,0,0.35945952,-213.92596,46.621159)"
       r="51.997" /></defs><g
     inkscape:groupmode="layer"
     id="layer3"
     inkscape:label="bras"
     style="display:none"
     sodipodi:insensitive="true"><path
       style="fill:#fec2a0;fill-opacity:1;stroke:#000000;stroke-width:1px;stroke-linecap:butt;stroke-linejoin:miter;stroke-opacity:1"
       d="m 512.66423,471.37611 -3.62312,-34.05726 -38.40499,-2.89849 -8.45393,22.94638 9.17855,0.96616"
       id="path1049"
       inkscape:label="skin1" /><path
       style="fill:#fec2a0;fill-opacity:1;stroke:#000000;stroke-width:1px;stroke-linecap:butt;stroke-linejoin:miter;stroke-opacity:1"
       d="m 305.18064,455.43441 c 0,0 -29.69236,1.18048 -39.59848,11.76978 l -18.52288,17.6982 c 0,0 16.29752,26.24213 29.61954,34.78189 5.46545,3.07431 29.12639,8.21238 41.76523,6.50443 18.44588,-0.34159 104.12544,-20.5138 104.12544,-20.5138 l 41.54503,-50.72358 10.14471,-0.48308 15.45861,4.34774 c 4.34774,2.17386 10.14472,-2.41541 10.14472,-2.41541 0,0 0.48308,-6.52161 -2.89849,-6.76315 l -24.63716,-3.86465 7.87079,-2.89346 c 3.5867,-2.22034 20.63103,2.89346 20.63103,2.89346 0,0 9.90317,-2.41541 6.76314,-9.66164 0,0 -25.82519,-6.79245 -28.9849,-5.59688 l -11.59396,2.21531 11.13767,-4.7429 c 3.92829,-2.81812 24.61037,4.7429 24.61037,4.7429 0,0 9.66164,0.96617 7.72931,-6.76314 0,0 -18.59865,-12.56012 -22.70484,-11.59396 -5.07236,-1.44925 -24.0419,5.4872 -24.0419,5.4872 l 8.58329,-4.81867 c 1.81155,-1.32848 24.63716,-3.08394 24.63716,-3.08394 7.94198,0.85398 4.83082,-8.21239 4.83082,-8.21239 0,0 -27.29411,-2.17387 -32.97032,0.12077 -14.33886,5.95553 -15.49888,13.08346 -23.55024,21.13482 l -15.45861,29.46799 -43.47736,24.63716 -72.46225,-5.3139 z"
       id="path1043"
       sodipodi:nodetypes="ccccccccccccccccccccccccccccccc"
       inkscape:label="skin1" /><path
       style="fill:#fec2a0;fill-opacity:1;stroke:#000000;stroke-width:1px;stroke-linecap:butt;stroke-linejoin:miter;stroke-opacity:1"
       d="m 471.36074,458.3329 -69.56376,-5.3139 c 0,0 -18.82927,-3.83032 -28.90619,-5.02588 -7.17339,-1.70795 -33.5407,-8.5519 -42.59285,-7.86872 -15.71315,1.53716 -31.93905,16.95936 -31.93905,16.95936 0,0 11.61321,12.66225 15.71229,20.00644 5.63624,8.88135 131.20315,29.55087 131.20315,29.55087 0,0 22.13801,5.5433 37.68037,4.34773 3.75749,-0.1708 22.4118,-9.10486 26.34009,-15.93666 5.12386,-5.97783 3.1279,-23.67603 3.1279,-23.67603"
       id="path1047"
       sodipodi:nodetypes="cccccccccc"
       inkscape:label="skin1" /></g><g
     inkscape:groupmode="layer"
     id="g1352"
     inkscape:label="tete_b"
     style="display:none"
     sodipodi:insensitive="true"><path
       id="path1326"
       style="display:inline;fill:#fead7f;fill-opacity:1;fill-rule:evenodd;stroke:#280b0b;stroke-width:1.5324;stroke-miterlimit:4;stroke-dasharray:none"
       d="m 291.56787,172.42679 c -8.6543,4.59738 -11.42775,18.69949 -6.19838,31.49894 5.2282,12.79945 16.48138,19.45036 25.1345,14.85431 8.6543,-4.59605 11.42893,-18.69815 6.19956,-31.4976 -5.2282,-12.79946 -16.48254,-19.45036 -25.13568,-14.85565 z m 132.02672,0 c 8.65197,4.59738 11.42776,18.69949 6.19956,31.49894 -5.2282,12.79945 -16.48371,19.45036 -25.13568,14.85431 -8.65312,-4.59605 -11.42892,-18.69815 -6.19954,-31.4976 5.22819,-12.79946 16.48371,-19.45036 25.13566,-14.85565 v 0"
       inkscape:label="skin2" /><path
       id="path1328"
       style="display:inline;fill:#fec2a0;fill-opacity:1;fill-rule:evenodd;stroke:#241c1c;stroke-width:0.933;stroke-miterlimit:4;stroke-dasharray:none"
       d="m 328.8627,218.05372 c 0,0 -7.41167,100.46478 -8.44133,106.38533 0,0 11.01553,33.66522 39.77469,32.20906 33.85572,-2.54828 37.18436,-31.84502 37.18436,-31.84502 l -8.44,-106.38533 -30.26705,0.15462 -29.81067,-0.51866"
       sodipodi:nodetypes="ccccccc"
       inkscape:label="skin1" /><path
       id="path1330"
       style="display:inline;fill:#fead7f;fill-opacity:1;fill-rule:evenodd;stroke:none;stroke-width:0.133333"
       d="m 375.27737,330.39105 21.648,-5.952 -8.44,-106.38533 -29.812,0.51866 -27.112,-0.47066 -3.492,46.048 c -1.65867,21.85466 6.43333,41.86533 20.584,50.91733 l 18.05333,11.544 c 2.83067,1.81333 5.69467,3.07333 8.57067,3.78"
       inkscape:label="skin2" /><path
       id="path1332"
       style="display:inline;fill:#fec2a0;fill-opacity:1;fill-rule:evenodd;stroke:#241c1c;stroke-width:1.433;stroke-miterlimit:4;stroke-dasharray:none"
       d="m 297.46404,110.46705 -7.07413,64.26485 c 0.25545,46.14132 19.53945,108.97026 48.29279,123.62448 13.16667,5.95067 26.81467,5.95067 39.98133,0 9.19201,-5.00555 25.79427,-26.73375 30.48129,-39.24763 9.02918,-24.9707 15.12274,-60.92594 16.96386,-88.24121 l -6.22648,-60.40049 c 0,0 -19.50808,-30.016474 -59.66484,-28.986814 -48.5162,0.1132 -62.75382,28.986814 -62.75382,28.986814"
       sodipodi:nodetypes="ccccccccc"
       inkscape:label="skin1" /><path
       id="path1334"
       style="display:inline;fill:#ffffff;fill-opacity:1;fill-rule:evenodd;stroke:#241c1c;stroke-width:0.833;stroke-miterlimit:4;stroke-dasharray:none"
       d="m 327.12937,247.34572 c -0.58267,8.84933 7.20307,17.04449 15.36041,20.73249 17.28591,6.74207 17.85425,4.35741 32.27159,0.38767 8.15733,-3.688 16.04,-12.27083 15.45733,-21.12016 -34.38213,16.48939 -63.08933,0 -63.08933,0"
       sodipodi:nodetypes="ccccc" /><path
       id="path1336"
       style="display:inline;fill:#2e2d2d;fill-opacity:1;fill-rule:evenodd;stroke:none;stroke-width:0.0856585"
       d="m 372.94036,164.69836 c 0,0 -6.14785,4.50122 -0.10933,6.09628 l 20.57333,-0.34394 c 1.10534,-0.0242 2.20534,0.11887 3.23867,0.42318 l 6.20933,2.20288 2.80667,-2.62606 c -2.136,-2.25295 -5.00667,-4.00897 -8.31333,-5.08262 -1.576,-0.51123 -3.26534,-0.77098 -4.968,-0.76217 l -19.43734,0.0924"
       sodipodi:nodetypes="ccccccccc" /><path
       id="path1338"
       style="display:inline;fill:#f9f9f9;fill-opacity:1;fill-rule:evenodd;stroke:#241c1c;stroke-width:0.608;stroke-miterlimit:4;stroke-dasharray:none;stroke-opacity:1"
       d="m 330.44223,206.26239 c 5.47787,0 9.94913,-5.90534 9.94913,-13.14469 0,-7.24085 -4.47126,-13.14468 -9.94913,-13.14468 -5.48256,0 -9.95069,5.90383 -9.95069,13.14468 0,7.23935 4.46813,13.14469 9.95069,13.14469" /><path
       id="path1340"
       style="display:inline;fill:#2e2d2d;fill-opacity:1;fill-rule:evenodd;stroke:none;stroke-width:0.0856585"
       d="m 343.63236,164.69836 c 0,0 7.59577,4.20215 0.108,6.09628 l -20.57199,-0.34394 c -1.10534,-0.0242 -2.20534,0.11887 -3.24,0.42318 l -6.208,2.20288 -2.80934,-2.62606 c 2.13734,-2.25295 5.00934,-4.00897 8.31734,-5.08262 1.57333,-0.51123 3.26266,-0.77098 4.96666,-0.76217 l 19.43733,0.0924"
       sodipodi:nodetypes="ccccccccc" /><path
       id="path1342"
       style="display:inline;fill:#2e2d2d;fill-opacity:1;fill-rule:evenodd;stroke:none;stroke-width:0.0732972"
       d="m 330.44212,200.27155 c 2.41212,0 4.37974,-3.04982 4.37974,-6.78857 0,-3.73954 -1.96762,-6.78857 -4.37974,-6.78857 -2.41212,0 -4.37974,3.04903 -4.37974,6.78857 0,3.73875 1.96762,6.78857 4.37974,6.78857" /><path
       id="path1344"
       style="display:inline;fill:#f9f9f9;fill-opacity:1;fill-rule:evenodd;stroke:#241c1c;stroke-width:0.608;stroke-miterlimit:4;stroke-dasharray:none;stroke-opacity:1"
       d="m 384.29048,206.49211 c 5.41138,0 9.82837,-5.85108 9.82837,-13.02392 0,-7.17432 -4.41699,-13.02391 -9.82837,-13.02391 -5.41601,0 -9.82991,5.84959 -9.82991,13.02391 0,7.17284 4.4139,13.02392 9.82991,13.02392" /><path
       id="path1346"
       style="display:inline;fill:#2e2d2d;fill-opacity:1;fill-rule:evenodd;stroke:none;stroke-width:0.0732972"
       d="m 384.65269,200.98436 c 2.41212,0 4.37974,-3.04982 4.37974,-6.78857 0,-3.73954 -1.96762,-6.78857 -4.37974,-6.78857 -2.41212,0 -4.37974,3.04903 -4.37974,6.78857 0,3.73875 1.96762,6.78857 4.37974,6.78857" /><path
       id="path1348"
       style="display:inline;fill:#241c1c;fill-opacity:1;fill-rule:evenodd;stroke:#241c1c;stroke-width:0.876418;stroke-miterlimit:4;stroke-dasharray:none"
       d="m 328.77395,255.60136 c 13.60897,20.91361 47.76267,24.77411 60.38396,-2.87827 -33.05716,18.98473 -60.9322,0.41118 -60.9322,0.41118"
       sodipodi:nodetypes="ccc" /><path
       style="display:inline;fill:none;stroke:#000000;stroke-width:1px;stroke-linecap:butt;stroke-linejoin:miter;stroke-opacity:1"
       d="m 359.96695,197.42307 c -1.64473,26.31567 22.70157,29.43696 0.81257,34.87547"
       id="path1350"
       sodipodi:nodetypes="cc" /></g><g
     inkscape:groupmode="layer"
     id="g1356"
     inkscape:label="cheveux_longs"
     style="display:none"
     sodipodi:insensitive="true"><path
       id="path1354"
       style="display:inline;fill:#2e2d2d;fill-opacity:1;fill-rule:evenodd;stroke:none;stroke-width:0.133333"
       d="m 430.15454,147.54183 1.8175,-17.53124 C 432.7273,116.56002 430.06769,112.65074 425.04727,101.4383 420.29908,94.157637 424.2587,93.305535 411.09211,83.340251 394.57997,67.8332 387.43976,70.300878 364.33972,67.978392 c -35.67298,1.864302 -34.55375,4.52553 -53.88518,11.563323 -21.11937,9.286072 -20.9031,17.639281 -25.50821,41.047225 l 2.68253,32.15417 3.19736,20.28476 11.9994,-32.43893 24.5086,-19.48048 c 37.57207,-21.04617 49.90161,-8.91388 83.18137,6.03777 l 15.29036,43.97299"
       sodipodi:nodetypes="ccccccccccccc"
       inkscape:label="hair1" /><path
       id="path1354-8"
       style="display:inline;fill:#2e2d2d;fill-opacity:1;fill-rule:evenodd;stroke:none;stroke-width:0.133333"
       d="m 323.48624,286.36003 c -14.02059,-17.74389 -18.19109,-34.17885 -28.34781,-65.10388 -10.55716,57.51832 -5.1131,86.88953 -5.1131,86.88953 l 5.01756,19.19264 25.46888,-8.04825 c 0,0 2.84822,-25.76017 2.84822,-32.94996"
       sodipodi:nodetypes="cccccc"
       inkscape:label="hair1" /><path
       id="path1354-8-0"
       style="display:inline;fill:#2e2d2d;fill-opacity:1;fill-rule:evenodd;stroke:none;stroke-width:0.13583"
       d="m 394.54529,283.37834 c 14.55064,-17.74389 18.10656,-31.86211 26.07311,-65.10388 10.95628,57.51832 1.18776,72.98911 1.18776,72.98911 l -8.55365,30.51891 -16.90738,-3.41478 c 0,0 -1.66882,-27.81949 -1.66882,-35.00928"
       sodipodi:nodetypes="cccccc"
       inkscape:label="hair1" /></g><g
     inkscape:groupmode="layer"
     id="layer1"
     inkscape:label="extras"><g
       id="g4808"
       stroke="#000000"
       stroke-width="1px"
       transform="matrix(0.62137172,0,0,0.60642526,137.2887,-121.78655)"
       style="display:inline"><path
         id="path2830"
         d="m 427.28,482.62 c -18.993,0.12691 -37.296,6.0637 -55.938,8.4375 -7.7808,0.99079 -15.8,1.2339 -23.594,0.3125 -10.362,-1.225 -20.395,-4.4791 -30.75,-5.9375 -9.2543,-1.3033 -18.625,-2.6639 -27.938,-2.7188 -16.274,-0.0958 -32.014,4.9995 -47.969,7.75 0,4.6672 -0.94784,10.657 1.4375,13.938 2.4604,3.3832 6.6108,6.4775 7.6875,11.062 2.5533,10.873 6.178,21.532 10.812,31.75 2.2522,4.9657 6.5033,8.4277 11.25,10.812 11.43,5.7427 24.96,6.5872 37.5,4.7812 17.858,-2.5718 27.546,-15.971 34.938,-31.281 2.7668,-6.2236 3.0753,-13.406 6.7188,-19.094 2.1641,-3.3784 7.1895,-1.9564 10.781,-1.9688 5.349,-0.0184 6.6354,5.9613 7.75,9.9375 3.9447,14.072 10.522,29.002 23.594,36.375 19.52,11.011 50.273,8.9511 62.938,-10.906 4.9565,-7.7714 6.3257,-17.201 8.8125,-26 1.5139,-5.3566 2.8661,-11.743 8.25,-14.688 2.1728,-1.1885 0.64803,-5.931 0.96875,-8.6875 0.34948,-3.0037 1.0232,-5.66 -3.25,-6.25 -7.4538,-1.0292 -14.684,-4.1594 -22.312,-5.2188 -7.2292,-1.0039 -14.312,-2.4555 -21.688,-2.4062 z m -125.56,5 c 5.3912,-0.0343 10.76,0.36033 16,1.4688 31.222,6.6041 31.853,19.468 19,46.062 -10.474,21.671 -32.17,27.101 -54.031,21.906 -10.078,-2.3944 -16.969,-9.4291 -20.219,-19.062 -3.4302,-10.167 -6.0249,-20.97 -5.4375,-31.656 0.78656,-14.31 16.973,-16.321 28.562,-17.625 5.3182,-0.59816 10.734,-1.0595 16.125,-1.0938 z m 114,0 c 5.3912,0.0343 10.807,0.49559 16.125,1.0938 11.59,1.3035 27.776,3.3147 28.562,17.625 0.58736,10.686 -2.0073,21.489 -5.4375,31.656 -3.25,9.6334 -10.141,16.668 -20.219,19.062 -21.862,5.1943 -43.558,-0.23554 -54.031,-21.906 -12.853,-26.595 -12.222,-39.458 19,-46.062 5.2402,-1.1084 10.609,-1.503 16,-1.4688 z" /><path
         id="path2832"
         opacity="0.85"
         d="m 285.59,488.73 c 10.636,-1.1963 21.643,-1.8437 32.123,0.37315 31.222,6.6041 31.852,19.469 18.998,46.064 -10.474,21.671 -32.158,27.102 -54.02,21.908 -10.078,-2.3944 -16.973,-9.4541 -20.223,-19.087 -3.4302,-10.167 -6.0391,-20.964 -5.4518,-31.65 0.78656,-14.31 16.983,-16.304 28.573,-17.607 z" /><path
         id="path2832-1"
         opacity="0.85"
         d="m 431.84,488.73 c -10.636,-1.1963 -21.643,-1.8437 -32.123,0.37315 -31.222,6.6041 -31.852,19.469 -18.998,46.064 10.474,21.671 32.158,27.102 54.02,21.908 10.078,-2.3944 16.973,-9.4541 20.223,-19.087 3.4302,-10.167 6.0391,-20.964 5.4518,-31.65 -0.78656,-14.31 -16.983,-16.304 -28.573,-17.607 z" /></g></g></svg>
